<?xml version="1.0" standalone="no"?>
<!DOCTYPE svg PUBLIC "-//W3C//DTD SVG 20010904//EN"
 "http://www.w3.org/TR/2001/REC-SVG-20010904/DTD/svg10.dtd">
<svg version="1.0" xmlns="http://www.w3.org/2000/svg"
 width="240.000000pt" height="240.000000pt" viewBox="0 0 240.000000 240.000000"
 preserveAspectRatio="xMidYMid meet">
<metadata>
Created by potrace 1.11, written by Peter Selinger 2001-2013
</metadata>
<g transform="translate(0.000000,240.000000) scale(0.100000,-0.100000)"
fill="#000000" stroke="none">
<path d="M0 1205 l0 -1075 1200 0 1200 0 0 1075 0 1075 -1200 0 -1200 0 0
-1075z m2140 816 c4 -1 5 -1612 1 -1631 -2 -8 -1875 -7 -1881 1 -4 6 -5 1634
-1 1634 400 0 1878 -3 1881 -4z"/>
<path d="M310 1668 c0 -2 7 -25 16 -53 8 -27 17 -57 19 -66 4 -19 95 -339 129
-454 52 -178 68 -231 70 -242 4 -23 14 -25 101 -25 82 -1 99 3 101 23 1 5 2
10 3 12 3 4 92 352 95 372 2 11 4 20 5 20 2 0 4 9 6 20 13 71 41 146 42 113 0
-11 9 -49 38 -168 2 -8 11 -40 19 -72 8 -31 18 -67 20 -80 11 -49 59 -233 62
-237 5 -5 183 -5 188 0 2 2 25 76 50 164 25 88 51 178 58 200 6 22 13 45 14
50 8 29 95 337 108 378 l14 47 -102 0 -103 0 -13 -57 c-8 -32 -15 -62 -16 -68
-7 -26 -15 -62 -20 -85 -3 -14 -10 -43 -16 -65 -11 -42 -16 -64 -24 -105 -7
-35 -44 -182 -50 -199 -2 -8 -6 -12 -8 -10 -2 2 -22 74 -44 159 -22 85 -52
200 -67 255 -14 55 -31 117 -36 138 l-10 37 -73 0 c-51 0 -73 -4 -73 -12 0
-13 -100 -399 -110 -428 -3 -8 -7 -22 -9 -30 -1 -8 -9 -38 -17 -67 -8 -28 -12
-55 -8 -59 3 -4 1 -4 -5 -1 -6 4 -21 48 -33 99 -12 51 -29 120 -37 153 -8 33
-17 71 -20 85 -3 14 -10 43 -16 65 -12 47 -12 48 -23 100 -4 22 -10 45 -14 50
-6 10 -7 16 -10 35 -1 8 -201 16 -201 8z"/>
<path d="M1510 1199 c0 -193 3 -247 15 -276 33 -78 80 -106 180 -107 75 0 149
25 192 66 l23 21 1 -24 c1 -13 1 -30 0 -36 -1 -7 6 -13 16 -14 52 -3 123 -1
135 3 10 4 13 62 11 289 0 156 -2 291 -2 300 -1 14 -14 17 -79 17 l-78 1 0
-205 -1 -204 -28 -30 c-16 -16 -31 -28 -33 -25 -3 3 -11 0 -17 -5 -15 -13 -69
-15 -112 -6 -22 5 -35 16 -44 39 -18 42 -16 20 -18 241 l-1 194 -80 0 -80 0 0
-239z"/>
</g>
</svg>
